{"glyphs":{" ":{"ha":347,"x_min":0,"x_max":0,"o":""},"A":{"ha":2597,"x_min":1,"x_max":2490,"o":"m 1 8 l 1034 814 l 1442 814 l 2490 8 l 2013 8 l 1223 657 l 424 8 l 1 8 z "},"B":{"ha":1622,"x_min":28,"x_max":1541,"o":"m 28 8 l 28 153 l 1084 153 q 1208 169 1176 153 q 1240 225 1240 184 l 1240 287 q 1208 342 1240 326 q 1084 358 1176 358 l 28 358 l 28 490 l 1084 490 q 1200 504 1168 490 q 1233 549 1233 516 l 1233 625 q 1200 669 1233 656 q 1084 682 1169 682 l 28 682 l 28 814 l 1220 814 q 1458 776 1383 814 q 1531 657 1531 739 l 1531 559 q 1470 467 1531 500 q 1292 423 1408 432 q 1476 374 1409 415 q 1541 269 1541 334 l 1541 166 q 1441 47 1541 85 q 1133 8 1340 8 l 28 8 z "},"C":{"ha":1627,"x_min":39,"x_max":1557,"o":"m 1557 814 l 1557 669 l 362 669 l 362 160 l 1557 160 l 1557 8 l 383 8 q 109 48 182 8 q 39 199 39 87 l 39 623 q 109 773 39 732 q 383 814 183 814 l 1557 814 z "},"D":{"ha":1797,"x_min":40,"x_max":1729,"o":"m 40 8 l 40 160 l 782 160 q 1255 220 1116 160 q 1395 419 1395 281 q 1279 606 1395 543 q 937 669 1163 669 l 40 669 l 40 814 l 935 814 q 1523 710 1316 814 q 1729 416 1729 606 q 1649 213 1729 303 q 1422 71 1568 122 q 1197 23 1333 38 q 852 8 1064 8 l 40 8 z "},"E":{"ha":1577,"x_min":35,"x_max":1503,"o":"m 35 814 l 1491 814 l 1491 676 l 35 676 l 35 814 m 1503 352 l 35 352 q 35 428 35 390 q 35 504 35 465 l 1503 504 l 1503 352 m 35 160 l 1503 160 l 1503 8 l 35 8 l 35 160 z "},"F":{"ha":1577,"x_min":41,"x_max":1509,"o":"m 1509 352 l 364 352 l 364 8 l 41 8 l 41 352 q 41 353 41 353 q 41 355 41 354 q 41 355 41 355 q 41 357 41 356 q 41 358 41 357 q 41 359 41 359 q 41 360 41 359 q 41 362 41 361 q 41 363 41 362 q 41 364 41 363 q 41 365 41 364 q 41 366 41 366 q 41 367 41 366 q 41 369 41 368 q 41 370 41 369 q 41 371 41 370 q 41 372 41 371 q 41 374 41 373 q 41 374 41 374 q 41 376 41 375 q 41 377 41 376 q 41 378 41 378 q 41 379 41 378 q 41 380 41 380 q 41 382 41 381 q 41 383 41 382 q 41 384 41 383 q 41 385 41 385 q 41 387 41 386 q 41 388 41 387 q 41 389 41 388 q 41 390 41 389 q 41 391 41 391 q 41 393 41 392 q 41 393 41 393 q 41 395 41 394 q 41 396 41 395 q 41 397 41 397 q 41 398 41 397 q 41 399 41 399 q 41 400 41 399 q 41 402 41 401 q 41 403 41 402 q 41 404 41 404 q 41 405 41 404 q 41 407 41 406 q 41 408 41 407 q 41 409 41 408 q 41 410 41 409 q 41 412 41 411 q 41 412 41 412 q 41 414 41 413 q 41 415 41 414 q 41 416 41 416 q 41 417 41 416 q 41 418 41 418 q 41 419 41 418 q 41 421 41 420 q 41 422 41 421 q 41 423 41 422 q 41 424 41 423 q 41 426 41 425 q 41 427 41 426 q 41 428 41 427 q 41 429 41 428 q 41 431 41 429 q 41 431 41 431 q 41 433 41 432 q 41 434 41 433 q 41 435 41 435 q 41 436 41 435 q 41 437 41 437 q 41 438 41 437 q 41 440 41 439 q 41 441 41 440 q 41 442 41 441 q 41 443 41 442 q 41 445 41 444 q 41 446 41 445 q 41 447 41 446 q 41 448 41 447 q 41 450 41 449 q 41 450 41 450 q 41 452 41 451 q 41 452 41 452 q 41 454 41 453 q 41 455 41 454 q 41 456 41 456 q 41 457 41 456 q 41 459 41 458 q 41 460 41 459 q 41 461 41 460 q 41 462 41 461 q 41 464 41 463 q 41 465 41 464 q 41 466 41 465 q 41 467 41 466 q 41 469 41 467 q 41 469 41 469 q 41 471 41 470 q 41 471 41 471 q 41 473 41 472 q 41 474 41 473 q 41 475 41 475 q 41 476 41 475 q 41 478 41 477 q 41 479 41 478 q 41 480 41 479 q 41 481 41 480 q 41 482 41 481 q 41 484 41 483 q 41 485 41 484 q 41 486 41 485 q 41 487 41 486 q 41 488 41 488 q 41 490 41 489 q 41 490 41 490 q 41 492 41 491 q 41 493 41 492 q 41 494 41 494 q 41 495 41 494 q 41 497 41 496 q 41 498 41 497 q 41 499 41 498 q 41 500 41 499 q 41 502 41 500 q 41 503 41 502 q 41 504 41 503 l 364 504 l 1509 504 l 1509 352 m 41 814 l 1496 814 l 1496 676 l 41 676 l 41 814 z "},"G":{"ha":1756,"x_min":38,"x_max":1686,"o":"m 362 669 l 362 160 l 1372 160 l 1372 339 l 843 339 l 843 476 l 1686 476 l 1686 199 q 1615 48 1686 87 q 1341 8 1543 8 l 383 8 q 109 48 180 8 q 38 199 38 88 l 38 623 q 109 773 38 732 q 383 814 182 814 l 1686 814 l 1686 669 l 362 669 z "},"H":{"ha":1768,"x_min":52,"x_max":1712,"o":"m 52 8 l 52 814 l 376 814 l 376 501 l 1385 501 l 1385 814 l 1712 814 l 1712 8 l 1385 8 l 1385 355 l 376 355 l 376 8 l 52 8 z "},"I":{"ha":432,"x_min":37,"x_max":360,"o":"m 199 -597 q 82 -220 128 -497 q 37 411 37 56 q 82 1042 37 765 q 199 1420 128 1319 q 314 1042 269 1319 q 360 411 360 765 q 314 -220 360 56 q 199 -597 269 -497 z "},"J":{"ha":1393,"x_min":56,"x_max":1341,"o":"m 401 8 q 127 48 198 8 q 56 199 56 87 l 56 366 l 382 366 l 382 160 l 1017 160 l 1017 814 l 1341 814 l 1341 199 q 1269 48 1341 87 q 996 8 1197 8 l 401 8 z "},"K":{"ha":1787,"x_min":63,"x_max":1742,"o":"m 63 8 l 63 814 l 389 814 l 389 477 l 1160 814 l 1628 814 l 707 434 l 1742 8 l 1222 8 l 389 362 l 389 8 l 63 8 z "},"L":{"ha":1158,"x_min":63,"x_max":1113,"o":"m 63 8 l 63 814 l 387 814 l 387 160 l 1113 160 l 1113 8 l 63 8 z "},"M":{"ha":1925,"x_min":35,"x_max":1851,"o":"m 35 8 l 35 814 l 297 814 l 951 327 l 1592 814 l 1851 814 l 1851 8 l 1552 8 l 1552 561 l 960 105 l 895 105 l 297 567 l 297 8 l 35 8 z "},"N":{"ha":1744,"x_min":30,"x_max":1665,"o":"m 30 8 l 30 814 l 251 814 l 1374 269 l 1374 814 l 1665 814 l 1665 123 l 1665 8 l 1444 8 l 320 556 l 320 52 l 320 8 l 30 8 z "},"O":{"ha":1820,"x_min":18,"x_max":1729,"o":"m 18 623 q 89 773 18 732 q 363 814 161 814 l 1385 814 q 1659 773 1586 814 q 1729 623 1729 732 l 1729 199 q 1659 48 1729 87 q 1385 8 1587 8 l 363 8 q 89 48 160 8 q 18 199 18 87 l 18 623 m 341 160 l 1407 160 l 1407 669 l 341 669 l 341 160 z "},"P":{"ha":1611,"x_min":50,"x_max":1553,"o":"m 50 8 l 50 460 q 573 460 311 460 q 1096 460 834 460 q 1211 475 1180 460 q 1242 525 1242 488 l 1242 611 q 1211 660 1242 646 q 1096 674 1180 674 q 573 674 834 674 q 50 674 311 674 l 50 814 l 1239 814 q 1479 777 1402 814 q 1553 657 1553 740 l 1553 477 q 1479 359 1553 396 q 1239 322 1404 322 l 368 322 l 368 8 l 50 8 z "},"Q":{"ha":1821,"x_min":22,"x_max":1735,"o":"m 1034 8 l 1034 -350 l 724 -350 l 724 8 l 368 8 q 94 48 165 8 q 22 199 22 88 l 22 623 q 94 773 22 732 q 368 814 166 814 l 1390 814 q 1664 773 1590 814 q 1735 623 1735 732 l 1735 199 q 1664 48 1735 87 q 1390 8 1592 8 l 1034 8 m 347 160 l 1412 160 l 1412 669 l 347 669 l 347 160 z "},"R":{"ha":1758,"x_min":52,"x_max":1701,"o":"m 52 8 l 52 450 l 1097 450 q 1212 464 1180 450 q 1243 514 1243 477 l 1243 611 q 1212 660 1243 646 q 1097 674 1181 674 l 52 674 l 52 814 l 1240 814 q 1480 777 1404 814 q 1555 657 1555 739 l 1555 468 q 1480 350 1555 387 q 1240 312 1405 312 l 1059 312 l 1701 8 l 1236 8 l 676 312 l 370 312 l 370 8 l 52 8 z "},"S":{"ha":1605,"x_min":72,"x_max":1569,"o":"m 416 814 l 1569 814 l 1569 673 l 355 673 l 355 500 l 1221 500 q 1497 459 1424 500 q 1569 309 1569 418 l 1569 199 q 1497 49 1569 89 q 1221 8 1424 8 l 72 8 l 72 160 l 1283 160 l 1283 343 l 416 343 q 143 384 214 343 q 72 534 72 425 l 72 623 q 143 773 72 732 q 416 814 216 814 z "},"T":{"ha":1710,"x_min":52,"x_max":1654,"o":"m 1014 669 l 1014 8 l 690 8 l 690 669 l 52 669 l 52 814 l 1654 814 l 1654 669 l 1014 669 z "},"U":{"ha":1676,"x_min":47,"x_max":1615,"o":"m 372 814 l 372 160 l 1293 160 l 1293 814 l 1615 814 l 1615 199 q 1544 48 1615 88 q 1270 8 1472 8 l 393 8 q 119 48 192 8 q 47 199 47 88 l 47 814 l 372 814 z "},"V":{"ha":2741,"x_min":101,"x_max":2734,"o":"m 101 814 l 549 814 l 1394 165 l 2229 814 l 2734 814 l 1626 8 l 1193 8 l 101 814 z "},"W":{"ha":2915,"x_min":89,"x_max":2895,"o":"m 746 8 l 89 814 l 499 814 l 932 273 l 1386 814 l 1664 814 l 2125 273 l 2539 814 l 2895 814 l 2236 8 l 1967 8 l 1498 566 l 1021 8 l 746 8 z "},"X":{"ha":1919,"x_min":5,"x_max":1815,"o":"m 17 8 l 675 422 l 5 814 l 434 814 l 878 540 l 1301 814 l 1672 814 l 1066 444 l 1815 8 l 1377 8 l 868 321 l 398 8 l 17 8 z "},"Y":{"ha":1876,"x_min":29,"x_max":1796,"o":"m 751 8 l 751 369 l 29 814 l 460 814 l 937 504 l 1416 814 l 1796 814 l 1077 373 l 1077 8 l 751 8 z "},"Z":{"ha":1600,"x_min":29,"x_max":1521,"o":"m 29 8 l 29 96 l 1000 669 l 126 669 l 126 814 l 1521 814 l 1521 733 l 535 160 l 1521 160 l 1521 8 l 29 8 z "},"a":{"ha":1961,"x_min":71,"x_max":1923,"o":"m 71 22 l 840 827 l 1144 827 l 1923 22 l 1568 22 l 981 671 l 386 22 l 71 22 z "},"b":{"ha":1622,"x_min":71,"x_max":1584,"o":"m 71 22 l 71 167 l 1127 167 q 1251 183 1219 167 q 1283 239 1283 199 l 1283 300 q 1251 356 1283 340 q 1127 372 1220 372 l 71 372 l 71 505 l 1127 505 q 1243 517 1211 505 q 1276 562 1276 530 l 1276 638 q 1243 683 1276 669 q 1127 696 1209 696 l 71 696 l 71 827 l 1262 827 q 1500 790 1427 827 q 1574 671 1574 751 l 1574 573 q 1512 481 1574 514 q 1334 437 1451 446 q 1519 388 1454 428 q 1584 283 1584 347 l 1584 180 q 1483 61 1584 100 q 1175 22 1381 22 l 71 22 z "},"c":{"ha":1627,"x_min":21,"x_max":1539,"o":"m 1539 827 l 1539 684 l 345 684 l 345 174 l 1539 174 l 1539 22 l 366 22 q 92 62 161 22 q 21 212 21 102 l 21 637 q 92 787 21 746 q 366 827 163 827 l 1539 827 z "},"d":{"ha":1796,"x_min":35,"x_max":1723,"o":"m 35 22 l 35 174 l 777 174 q 1250 234 1109 174 q 1390 433 1390 294 q 1274 620 1390 555 q 932 684 1156 684 l 35 684 l 35 827 l 930 827 q 1518 724 1312 827 q 1723 430 1723 620 q 1643 227 1723 316 q 1417 85 1562 136 q 1192 37 1326 52 q 846 22 1057 22 l 35 22 z "},"e":{"ha":1577,"x_min":49,"x_max":1517,"o":"m 49 827 l 1504 827 l 1504 690 l 49 690 l 49 827 m 1517 366 l 49 366 q 49 441 49 404 q 49 517 49 479 l 1517 517 l 1517 366 m 49 174 l 1517 174 l 1517 22 l 49 22 l 49 174 z "},"f":{"ha":1577,"x_min":67,"x_max":1535,"o":"m 1535 366 l 391 366 l 391 22 l 67 22 l 67 366 q 67 367 67 366 q 67 368 67 368 q 67 370 67 369 q 67 371 67 370 q 67 372 67 371 q 67 374 67 372 q 67 374 67 374 q 67 376 67 375 q 67 376 67 376 q 67 378 67 377 q 67 379 67 378 q 67 380 67 380 q 67 381 67 380 q 67 382 67 382 q 67 384 67 382 q 67 385 67 385 q 67 386 67 385 q 67 387 67 387 q 67 388 67 387 q 67 390 67 389 q 67 391 67 390 q 67 392 67 391 q 67 393 67 393 q 67 395 67 394 q 67 395 67 395 q 67 397 67 396 q 67 398 67 397 q 67 399 67 399 q 67 400 67 399 q 67 401 67 401 q 67 403 67 402 q 67 404 67 404 q 67 405 67 404 q 67 406 67 406 q 67 407 67 406 q 67 409 67 408 q 67 410 67 409 q 67 411 67 410 q 67 412 67 411 q 67 414 67 413 q 67 414 67 414 q 67 416 67 415 q 67 417 67 416 q 67 418 67 418 q 67 419 67 418 q 67 420 67 420 q 67 421 67 420 q 67 423 67 422 q 67 424 67 423 q 67 425 67 425 q 67 426 67 425 q 67 428 67 427 q 67 429 67 428 q 67 430 67 429 q 67 431 67 430 q 67 433 67 432 q 67 433 67 433 q 67 435 67 434 q 67 435 67 435 q 67 437 67 436 q 67 438 67 437 q 67 439 67 439 q 67 440 67 439 q 67 442 67 441 q 67 443 67 442 q 67 444 67 444 q 67 445 67 444 q 67 447 67 446 q 67 448 67 447 q 67 449 67 448 q 67 450 67 449 q 67 452 67 451 q 67 452 67 452 q 67 454 67 453 q 67 455 67 454 q 67 456 67 456 q 67 457 67 456 q 67 458 67 458 q 67 459 67 458 q 67 461 67 460 q 67 462 67 461 q 67 463 67 463 q 67 464 67 463 q 67 466 67 465 q 67 467 67 466 q 67 468 67 467 q 67 469 67 468 q 67 471 67 469 q 67 471 67 471 q 67 473 67 472 q 67 473 67 473 q 67 475 67 474 q 67 476 67 475 q 67 477 67 477 q 67 478 67 477 q 67 480 67 479 q 67 481 67 480 q 67 482 67 481 q 67 483 67 482 q 67 485 67 484 q 67 486 67 485 q 67 487 67 486 q 67 488 67 487 q 67 490 67 488 q 67 490 67 490 q 67 492 67 491 q 67 492 67 492 q 67 494 67 493 q 67 495 67 494 q 67 496 67 496 q 67 497 67 496 q 67 498 67 498 q 67 500 67 499 q 67 501 67 500 q 67 502 67 501 q 67 504 67 503 q 67 505 67 504 q 67 506 67 505 q 67 507 67 506 q 67 509 67 507 q 67 509 67 509 q 67 511 67 510 q 67 511 67 511 q 67 513 67 512 q 67 514 67 513 q 67 515 67 515 q 67 516 67 515 q 67 517 67 517 l 391 517 l 1535 517 l 1535 366 m 67 827 l 1522 827 l 1522 690 l 67 690 l 67 827 z "},"g":{"ha":1756,"x_min":79,"x_max":1726,"o":"m 402 684 l 402 174 l 1412 174 l 1412 353 l 883 353 l 883 490 l 1726 490 l 1726 213 q 1655 62 1726 102 q 1381 22 1584 22 l 423 22 q 149 62 219 22 q 79 213 79 102 l 79 637 q 149 787 79 746 q 423 827 220 827 l 1726 827 l 1726 684 l 402 684 z "},"h":{"ha":1768,"x_min":63,"x_max":1723,"o":"m 63 22 l 63 827 l 387 827 l 387 515 l 1396 515 l 1396 827 l 1723 827 l 1723 22 l 1396 22 l 1396 369 l 387 369 l 387 22 l 63 22 z "},"i":{"ha":432,"x_min":54,"x_max":377,"o":"m 54 22 l 54 827 l 377 827 l 377 22 l 54 22 z "},"j":{"ha":1393,"x_min":45,"x_max":1330,"o":"m 391 22 q 117 62 186 22 q 45 212 45 102 l 45 380 l 372 380 l 372 174 l 1006 174 l 1006 827 l 1330 827 l 1330 212 q 1258 62 1330 102 q 985 22 1187 22 l 391 22 z "},"k":{"ha":1787,"x_min":54,"x_max":1733,"o":"m 54 22 l 54 827 l 380 827 l 380 492 l 1152 827 l 1619 827 l 699 448 l 1733 22 l 1213 22 l 380 376 l 380 22 l 54 22 z "},"l":{"ha":1331,"x_min":45,"x_max":1267,"o":"m 368 827 l 368 174 l 1267 174 l 1267 22 l 389 22 q 117 62 186 22 q 45 212 45 102 l 45 827 l 368 827 z "},"m":{"ha":2127,"x_min":39,"x_max":2058,"o":"m 363 22 l 39 22 l 39 637 q 111 787 39 746 q 383 827 182 827 l 865 827 q 1048 815 977 827 q 1231 827 1120 827 l 1712 827 q 1986 787 1914 827 q 2058 637 2058 747 l 2058 22 l 1735 22 l 1735 675 l 1210 675 l 1210 22 l 888 22 l 886 22 l 888 675 l 363 675 l 363 22 z "},"n":{"ha":1676,"x_min":74,"x_max":1641,"o":"m 397 22 l 74 22 l 74 637 q 146 787 74 747 q 418 827 217 827 l 1297 827 q 1570 787 1498 827 q 1641 637 1641 747 l 1641 22 l 1319 22 l 1319 675 l 397 675 l 397 22 z "},"o":{"ha":1820,"x_min":89,"x_max":1801,"o":"m 89 637 q 160 787 89 747 q 433 827 231 827 l 1456 827 q 1730 787 1657 827 q 1801 637 1801 746 l 1801 212 q 1730 62 1801 102 q 1456 22 1659 22 l 433 22 q 160 62 230 22 q 89 212 89 102 l 89 637 m 412 174 l 1478 174 l 1478 684 l 412 684 l 412 174 z "},"p":{"ha":1611,"x_min":51,"x_max":1554,"o":"m 51 22 l 51 475 q 573 475 312 475 q 1097 475 835 475 q 1211 488 1179 475 q 1242 538 1242 502 l 1242 625 q 1211 674 1242 660 q 1097 688 1182 688 q 573 688 835 688 q 51 688 312 688 l 51 827 l 1240 827 q 1480 791 1404 827 q 1554 671 1554 753 l 1554 492 q 1480 373 1554 409 q 1240 336 1405 336 l 369 336 l 369 22 l 51 22 z "},"q":{"ha":1820,"x_min":82,"x_max":1794,"o":"m 1093 22 l 1225 -336 l 916 -336 l 784 22 l 427 22 q 153 62 223 22 q 82 212 82 102 l 82 637 q 153 787 82 747 q 427 827 224 827 l 1449 827 q 1723 787 1651 827 q 1794 637 1794 746 l 1794 212 q 1723 62 1794 102 q 1449 22 1653 22 l 1093 22 m 406 174 l 1472 174 l 1472 684 l 406 684 l 406 174 z "},"r":{"ha":1757,"x_min":36,"x_max":1685,"o":"m 36 22 l 36 464 l 1082 464 q 1196 478 1166 464 q 1227 528 1227 492 l 1227 625 q 1196 674 1227 660 q 1082 688 1167 688 l 36 688 l 36 827 l 1225 827 q 1465 791 1390 827 q 1539 671 1539 753 l 1539 482 q 1465 363 1539 401 q 1225 326 1391 326 l 1043 326 l 1685 22 l 1221 22 l 661 326 l 354 326 l 354 22 l 36 22 z "},"s":{"ha":1605,"x_min":39,"x_max":1535,"o":"m 384 827 l 1535 827 l 1535 686 l 322 686 l 322 513 l 1188 513 q 1464 473 1391 513 q 1535 323 1535 433 l 1535 212 q 1464 62 1535 103 q 1188 22 1391 22 l 39 22 l 39 174 l 1251 174 l 1251 357 l 384 357 q 111 397 182 357 q 39 548 39 438 l 39 637 q 111 787 39 747 q 384 827 182 827 z "},"t":{"ha":1710,"x_min":39,"x_max":1641,"o":"m 1001 684 l 1001 22 l 677 22 l 677 684 l 39 684 l 39 827 l 1641 827 l 1641 684 l 1001 684 z "},"u":{"ha":1676,"x_min":45,"x_max":1612,"o":"m 369 827 l 369 174 l 1290 174 l 1290 827 l 1612 827 l 1612 212 q 1541 62 1612 102 q 1267 22 1471 22 l 390 22 q 117 62 186 22 q 45 212 45 102 l 45 827 l 369 827 z "},"v":{"ha":1961,"x_min":40,"x_max":1892,"o":"m 40 827 l 355 827 l 949 178 l 1537 827 l 1892 827 l 1113 22 l 808 22 l 40 827 z "},"w":{"ha":2914,"x_min":35,"x_max":2840,"o":"m 692 22 l 35 827 l 445 827 l 878 288 l 1332 827 l 1610 827 l 2071 288 l 2485 827 l 2840 827 l 2182 22 l 1913 22 l 1443 579 l 966 22 l 692 22 z "},"x":{"ha":1919,"x_min":71,"x_max":1882,"o":"m 83 22 l 742 436 l 71 827 l 500 827 l 944 554 l 1367 827 l 1739 827 l 1133 457 l 1882 22 l 1443 22 l 934 334 l 465 22 l 83 22 z "},"y":{"ha":1876,"x_min":95,"x_max":1863,"o":"m 817 22 l 817 382 l 95 827 l 526 827 l 1004 518 l 1482 827 l 1863 827 l 1143 387 l 1143 22 l 817 22 z "},"z":{"ha":1600,"x_min":35,"x_max":1527,"o":"m 35 22 l 35 110 l 1007 684 l 133 684 l 133 827 l 1527 827 l 1527 747 l 541 174 l 1527 174 l 1527 22 l 35 22 z "}}}
